<svg width="456" height="456" viewBox="0 0 456 456" fill="none" xmlns="http://www.w3.org/2000/svg">
<g clip-path="url(#clip0_123_31)">
<path d="M348.592 56.0378C348.676 55.6029 348.648 55.1549 348.512 54.7326C348.376 54.3102 348.135 53.9262 347.81 53.6134C347.486 53.3007 347.087 53.0687 346.648 52.9374C346.21 52.8061 345.745 52.7795 345.294 52.8598C313.237 22.7776 270.149 6.10449 225.401 6.46609C180.652 6.82769 137.861 24.1948 106.332 54.7908C74.8038 85.3868 57.088 126.737 57.0372 169.851C56.9864 212.964 74.6048 254.353 106.061 285.018L106.075 285.031C106.214 285.363 106.421 285.665 106.684 285.918C106.947 286.171 107.26 286.371 107.604 286.504L107.618 286.518C139.448 316.824 182.409 333.797 227.159 333.748C271.909 333.699 314.83 316.632 346.588 286.257C378.346 255.882 396.373 214.656 396.748 171.545C397.123 128.433 379.817 86.9216 348.592 56.0378ZM226.895 11.8867C269.473 11.8572 310.386 27.8175 340.947 56.3788L331.66 65.3263V60.989C331.659 60.4158 331.471 59.8576 331.123 59.3927C330.775 58.9278 330.284 58.5797 329.72 58.3974L312.732 52.9416C312.306 52.8055 311.853 52.7688 311.409 52.8345C310.966 52.9001 310.545 53.0664 310.181 53.3194C309.818 53.5725 309.522 53.9052 309.318 54.2901C309.114 54.6749 309.008 55.101 309.008 55.5331V69.1727H299.792L300.514 47.4313C300.534 46.7601 300.297 46.105 299.848 45.5916C299.399 45.0782 298.769 44.7425 298.079 44.6488L278.258 41.9209C277.857 41.8663 277.448 41.8952 277.059 42.0059C276.671 42.1165 276.311 42.3063 276.005 42.5623C275.699 42.8183 275.454 43.1347 275.286 43.4899C275.117 43.8452 275.03 44.2311 275.03 44.6215V74.6285H263.704V66.4448C263.704 66.0408 263.611 65.642 263.432 65.2766C263.254 64.9112 262.994 64.5882 262.671 64.3306C262.347 64.0744 261.968 63.8912 261.561 63.7944C261.155 63.6977 260.731 63.6898 260.321 63.7714L246.715 66.3902V55.5331C246.717 54.8754 246.471 54.2394 246.023 53.7429C245.576 53.2463 244.956 52.9229 244.28 52.8325L224.46 50.1046C224.058 50.05 223.65 50.0789 223.261 50.1896C222.872 50.3002 222.513 50.49 222.207 50.746C221.901 51.002 221.655 51.3184 221.487 51.6736C221.319 52.0289 221.232 52.4148 221.232 52.8052V98.2657L212.171 86.6312C211.806 86.1584 211.292 85.8122 210.705 85.6444C210.119 85.4767 209.492 85.4964 208.918 85.7006C208.344 85.9049 207.855 86.2826 207.522 86.7774C207.19 87.2721 207.033 87.8573 207.074 88.4453L210.076 131.628C181.042 126.778 151.194 129.394 123.545 139.211C114.818 142.271 107.281 147.847 101.961 155.181C96.6415 162.515 93.7969 171.251 93.8148 180.198V197.384C93.817 198.107 94.1161 198.799 94.6466 199.311C95.1771 199.822 95.896 200.11 96.6463 200.112H102.805C102.524 200.862 102.362 201.648 102.323 202.444C102.266 203.507 102.435 204.57 102.819 205.568H102.309C99.1217 205.548 96.0216 206.571 93.516 208.47C91.0105 210.368 89.2477 213.029 88.516 216.018C87.7844 219.007 88.1272 222.147 89.4883 224.924C90.8495 227.701 93.1484 229.951 96.0092 231.305C94.9595 232.953 94.5483 234.905 94.8483 236.816L96.5613 247.496C97.4396 253.177 100.37 258.378 104.838 262.183C109.305 265.988 115.022 268.153 120.983 268.296L108.85 279.985C86.4303 257.662 71.3308 229.473 65.4358 198.935C59.5408 168.397 63.1114 136.863 75.702 108.268C88.2926 79.6726 109.346 55.283 136.234 38.1426C163.122 21.0023 194.654 11.8705 226.895 11.8867ZM121.747 262.854C117.007 262.875 112.416 261.251 108.818 258.277C105.219 255.304 102.853 251.181 102.154 246.664L100.455 235.984C100.391 235.596 100.415 235.199 100.526 234.821C100.637 234.443 100.832 234.093 101.097 233.795C101.362 233.496 101.692 233.257 102.062 233.094C102.433 232.93 102.836 232.846 103.244 232.847H157.778L126.632 262.854H121.747ZM108.751 204.572C108.495 204.329 108.293 204.037 108.159 203.716C108.025 203.394 107.962 203.05 107.972 202.703C108.018 202.036 108.304 201.404 108.779 200.917C109.319 200.404 110.046 200.115 110.804 200.112H191.756L184.819 206.795L182.851 205.854C182.461 205.663 182.029 205.565 181.591 205.568H167.434C165.932 205.568 164.491 206.142 163.429 207.166C162.367 208.189 161.771 209.577 161.771 211.023V216.247C161.78 216.781 161.642 217.307 161.37 217.772C161.099 218.236 160.705 218.624 160.227 218.893C160.079 218.982 159.916 219.047 159.746 219.084C159.601 219.137 159.448 219.169 159.293 219.18C159.228 219.192 159.161 219.196 159.095 219.194C158.991 219.207 158.887 219.207 158.783 219.194C158.717 219.196 158.651 219.191 158.585 219.18C158.43 219.169 158.278 219.137 158.132 219.084C157.962 219.047 157.799 218.982 157.651 218.893C157.173 218.624 156.779 218.236 156.508 217.772C156.237 217.307 156.098 216.781 156.108 216.247V213.751C156.108 211.581 155.213 209.499 153.62 207.965C152.027 206.43 149.866 205.568 147.613 205.568H111.129C110.683 205.569 110.241 205.481 109.832 205.31C109.423 205.138 109.055 204.887 108.751 204.572ZM280.693 77.3564V47.7723L294.766 49.7091L294.03 71.8324L293.194 102.385L280.693 114.429V77.3564ZM309.008 87.1495L299.013 96.779L299.622 74.6285H309.008V87.1495ZM265.205 161.921H314.671V183.744H269.367V180.198C269.371 173.887 267.951 167.651 265.205 161.921ZM292.458 129.186H280.693V122.121L292.982 110.282L292.458 129.186ZM275.03 129.186H273.36L275.03 127.577V129.186ZM258.055 160.503C261.752 166.455 263.704 173.262 263.704 180.198V194.656H205.404L250.241 151.46C253.32 154.062 255.957 157.114 258.055 160.503ZM252.053 200.112C252.501 200.112 252.944 200.201 253.356 200.372C253.767 200.543 254.138 200.793 254.445 201.108C254.923 201.579 255.196 202.208 255.21 202.867V202.976C255.164 203.644 254.878 204.275 254.403 204.763C253.863 205.276 253.136 205.565 252.378 205.568H238.221C237.702 205.566 237.192 205.703 236.748 205.963L212.596 220.189L190.142 209.359L199.741 200.112H252.053ZM309.008 129.186H298.121L298.801 104.676L309.008 94.8422V129.186ZM275.03 119.884L265.375 129.186H263.704V80.0843H275.03V119.884ZM258.041 77.3564V129.186H245.3V129.173L242.581 72.7462L244.351 72.4052L244.535 72.3779L258.041 69.7728V77.3564ZM241.052 67.4814L239.084 67.8633C238.421 67.9916 237.827 68.3437 237.409 68.8563C236.992 69.3688 236.777 70.0082 236.805 70.6594L239.24 121.412L226.895 105.549V55.956L241.052 57.8928V67.4814ZM212.582 137.629V137.643C221.126 139.263 229.531 141.502 237.725 144.34C240.526 145.306 243.201 146.583 245.696 148.145L197.419 194.656H99.4778V180.198C99.4573 172.373 101.94 164.733 106.589 158.316C111.238 151.9 117.826 147.02 125.457 144.34C153.31 134.448 183.451 132.126 212.582 137.629ZM165.763 232.847H259.938C260.346 232.846 260.749 232.93 261.12 233.094C261.49 233.257 261.82 233.496 262.085 233.795C262.35 234.093 262.545 234.443 262.656 234.821C262.767 235.199 262.791 235.596 262.727 235.984L261.028 246.664C260.805 248.057 260.43 249.424 259.91 250.742C259.853 250.851 259.811 250.96 259.754 251.083C259.754 251.096 259.74 251.11 259.74 251.137C258.241 254.62 255.7 257.595 252.44 259.681C249.179 261.768 245.348 262.872 241.435 262.854H134.617L165.763 232.847ZM325.997 109.177L314.671 123.731V89.3864L325.997 78.4748V109.177ZM314.671 81.6937V59.3113L325.997 62.953V70.7821L314.671 81.6937ZM226.895 328.323C184.317 328.353 143.404 312.392 112.842 283.831L128.954 268.309H241.435C246.189 268.333 250.853 267.066 254.895 264.654C258.936 262.242 262.19 258.782 264.285 254.67H334.492C335.211 254.668 335.903 254.405 336.428 253.931C336.954 253.458 337.273 252.811 337.323 252.119L348.649 88.4453C348.691 87.8573 348.534 87.2721 348.201 86.7774C347.869 86.2826 347.379 85.9049 346.805 85.7006C346.232 85.4964 345.605 85.4767 345.018 85.6444C344.432 85.8122 343.917 86.1584 343.552 86.6312L331.66 101.907V73.019L344.94 60.2251C367.359 82.5475 382.459 110.737 388.354 141.275C394.249 171.813 390.678 203.347 378.088 231.942C365.497 260.537 344.444 284.927 317.556 302.067C290.668 319.208 259.136 328.339 226.895 328.323Z" fill="black"/>
<path d="M212.893 154.815L221.388 158.907C222.056 159.203 222.818 159.236 223.512 159C224.206 158.764 224.777 158.277 225.105 157.642C225.433 157.008 225.491 156.275 225.267 155.6C225.044 154.924 224.556 154.359 223.908 154.024L215.413 149.932C214.745 149.636 213.983 149.603 213.289 149.839C212.595 150.075 212.024 150.562 211.696 151.197C211.368 151.831 211.31 152.564 211.534 153.239C211.757 153.915 212.245 154.48 212.893 154.815Z" fill="black"/>
<path d="M195.494 173.992C195.968 174.309 196.531 174.48 197.108 174.483C197.564 174.483 198.014 174.376 198.418 174.171C198.822 173.967 199.169 173.672 199.429 173.31L203.79 167.282C204.025 166.989 204.196 166.653 204.293 166.295C204.389 165.937 204.409 165.563 204.351 165.197C204.293 164.832 204.158 164.481 203.955 164.167C203.751 163.853 203.484 163.582 203.168 163.37C202.853 163.159 202.496 163.012 202.119 162.938C201.743 162.864 201.355 162.864 200.979 162.939C200.602 163.014 200.246 163.162 199.931 163.374C199.616 163.586 199.349 163.857 199.146 164.172L194.786 170.201C194.573 170.494 194.423 170.825 194.343 171.175C194.264 171.524 194.257 171.886 194.323 172.238C194.388 172.59 194.526 172.927 194.727 173.228C194.928 173.529 195.188 173.788 195.494 173.992Z" fill="black"/>
<path d="M173.394 146.304C173.178 146.997 173.257 147.744 173.613 148.381C173.968 149.017 174.572 149.492 175.291 149.7L183.417 152.074C183.683 152.154 183.96 152.196 184.238 152.196C184.846 152.194 185.438 152.005 185.927 151.657C186.415 151.308 186.776 150.819 186.957 150.259C187.172 149.567 187.094 148.82 186.738 148.183C186.382 147.546 185.778 147.071 185.06 146.863L176.933 144.49C176.577 144.385 176.203 144.348 175.832 144.382C175.462 144.417 175.102 144.521 174.773 144.69C174.444 144.858 174.153 145.087 173.916 145.364C173.68 145.641 173.502 145.961 173.394 146.304Z" fill="black"/>
<path d="M162.294 167.514L153.8 170.241C153.16 170.444 152.615 170.86 152.265 171.415C151.915 171.97 151.781 172.627 151.889 173.268C151.996 173.909 152.338 174.492 152.851 174.912C153.365 175.333 154.018 175.563 154.692 175.561C154.995 175.562 155.296 175.516 155.584 175.424L164.078 172.697C164.792 172.469 165.382 171.977 165.719 171.33C166.056 170.683 166.113 169.933 165.876 169.246C165.64 168.558 165.129 167.99 164.458 167.665C163.786 167.34 163.008 167.286 162.294 167.514Z" fill="black"/>
<path d="M145.419 148.391L135.509 151.119C134.855 151.302 134.293 151.706 133.923 152.257C133.554 152.807 133.403 153.467 133.497 154.117C133.592 154.766 133.926 155.36 134.438 155.792C134.95 156.223 135.607 156.462 136.287 156.465C136.551 156.469 136.814 156.433 137.066 156.356L146.976 153.628C147.662 153.401 148.231 152.929 148.565 152.309C148.9 151.689 148.976 150.97 148.776 150.298C148.576 149.626 148.117 149.054 147.492 148.699C146.868 148.345 146.125 148.234 145.419 148.391Z" fill="black"/>
<path d="M106.318 362H102.091C101.841 360.784 101.403 359.716 100.778 358.795C100.165 357.875 99.4148 357.102 98.5284 356.477C97.6534 355.841 96.6818 355.364 95.6136 355.045C94.5455 354.727 93.4318 354.568 92.2727 354.568C90.1591 354.568 88.2443 355.102 86.5284 356.17C84.8239 357.239 83.4659 358.812 82.4545 360.892C81.4545 362.972 80.9545 365.523 80.9545 368.545C80.9545 371.568 81.4545 374.119 82.4545 376.199C83.4659 378.278 84.8239 379.852 86.5284 380.92C88.2443 381.989 90.1591 382.523 92.2727 382.523C93.4318 382.523 94.5455 382.364 95.6136 382.045C96.6818 381.727 97.6534 381.256 98.5284 380.631C99.4148 379.994 100.165 379.216 100.778 378.295C101.403 377.364 101.841 376.295 102.091 375.091H106.318C106 376.875 105.42 378.472 104.58 379.881C103.739 381.29 102.693 382.489 101.443 383.477C100.193 384.455 98.7898 385.199 97.233 385.71C95.6875 386.222 94.0341 386.477 92.2727 386.477C89.2955 386.477 86.6477 385.75 84.3295 384.295C82.0114 382.841 80.1875 380.773 78.858 378.091C77.5284 375.409 76.8636 372.227 76.8636 368.545C76.8636 364.864 77.5284 361.682 78.858 359C80.1875 356.318 82.0114 354.25 84.3295 352.795C86.6477 351.341 89.2955 350.614 92.2727 350.614C94.0341 350.614 95.6875 350.869 97.233 351.381C98.7898 351.892 100.193 352.642 101.443 353.631C102.693 354.608 103.739 355.801 104.58 357.21C105.42 358.608 106 360.205 106.318 362ZM120.308 386.614C118.649 386.614 117.143 386.301 115.791 385.676C114.439 385.04 113.365 384.125 112.57 382.932C111.774 381.727 111.376 380.273 111.376 378.568C111.376 377.068 111.672 375.852 112.263 374.92C112.854 373.977 113.643 373.239 114.632 372.705C115.621 372.17 116.712 371.773 117.905 371.511C119.109 371.239 120.32 371.023 121.536 370.864C123.126 370.659 124.416 370.506 125.405 370.403C126.405 370.29 127.132 370.102 127.587 369.841C128.053 369.58 128.286 369.125 128.286 368.477V368.341C128.286 366.659 127.825 365.352 126.905 364.42C125.996 363.489 124.615 363.023 122.763 363.023C120.842 363.023 119.337 363.443 118.246 364.284C117.155 365.125 116.388 366.023 115.945 366.977L112.126 365.614C112.808 364.023 113.717 362.784 114.854 361.898C116.001 361 117.251 360.375 118.604 360.023C119.967 359.659 121.308 359.477 122.626 359.477C123.467 359.477 124.433 359.58 125.524 359.784C126.626 359.977 127.689 360.381 128.712 360.994C129.746 361.608 130.604 362.534 131.286 363.773C131.967 365.011 132.308 366.67 132.308 368.75V386H128.286V382.455H128.081C127.808 383.023 127.354 383.631 126.717 384.278C126.081 384.926 125.234 385.477 124.178 385.932C123.121 386.386 121.831 386.614 120.308 386.614ZM120.922 383C122.513 383 123.854 382.688 124.945 382.062C126.047 381.438 126.876 380.631 127.433 379.642C128.001 378.653 128.286 377.614 128.286 376.523V372.841C128.115 373.045 127.74 373.233 127.161 373.403C126.592 373.562 125.933 373.705 125.183 373.83C124.445 373.943 123.723 374.045 123.018 374.136C122.325 374.216 121.763 374.284 121.331 374.341C120.286 374.477 119.308 374.699 118.399 375.006C117.501 375.301 116.774 375.75 116.217 376.352C115.672 376.943 115.399 377.75 115.399 378.773C115.399 380.17 115.916 381.227 116.95 381.943C117.996 382.648 119.32 383 120.922 383ZM139.651 386V359.818H143.537V363.773H143.81C144.287 362.477 145.151 361.426 146.401 360.619C147.651 359.812 149.06 359.409 150.628 359.409C150.923 359.409 151.293 359.415 151.736 359.426C152.179 359.437 152.514 359.455 152.741 359.477V363.568C152.605 363.534 152.293 363.483 151.804 363.415C151.327 363.335 150.821 363.295 150.287 363.295C149.014 363.295 147.878 363.562 146.878 364.097C145.889 364.619 145.105 365.347 144.526 366.278C143.957 367.199 143.673 368.25 143.673 369.432V386H139.651ZM157.51 386V359.818H161.396V363.773H161.669C162.146 362.477 163.01 361.426 164.26 360.619C165.51 359.812 166.919 359.409 168.487 359.409C168.783 359.409 169.152 359.415 169.595 359.426C170.038 359.437 170.374 359.455 170.601 359.477V363.568C170.464 363.534 170.152 363.483 169.663 363.415C169.186 363.335 168.68 363.295 168.146 363.295C166.874 363.295 165.737 363.562 164.737 364.097C163.749 364.619 162.964 365.347 162.385 366.278C161.817 367.199 161.533 368.25 161.533 369.432V386H157.51ZM185.55 386.545C183.027 386.545 180.851 385.989 179.021 384.875C177.203 383.75 175.8 382.182 174.811 380.17C173.834 378.148 173.345 375.795 173.345 373.114C173.345 370.432 173.834 368.068 174.811 366.023C175.8 363.966 177.175 362.364 178.936 361.216C180.709 360.057 182.777 359.477 185.141 359.477C186.504 359.477 187.851 359.705 189.18 360.159C190.51 360.614 191.72 361.352 192.811 362.375C193.902 363.386 194.771 364.727 195.419 366.398C196.067 368.068 196.391 370.125 196.391 372.568V374.273H176.209V370.795H192.3C192.3 369.318 192.004 368 191.413 366.841C190.834 365.682 190.004 364.767 188.925 364.097C187.857 363.426 186.595 363.091 185.141 363.091C183.538 363.091 182.152 363.489 180.982 364.284C179.822 365.068 178.93 366.091 178.305 367.352C177.68 368.614 177.368 369.966 177.368 371.409V373.727C177.368 375.705 177.709 377.381 178.391 378.756C179.084 380.119 180.044 381.159 181.271 381.875C182.499 382.58 183.925 382.932 185.55 382.932C186.607 382.932 187.561 382.784 188.413 382.489C189.277 382.182 190.021 381.727 190.646 381.125C191.271 380.511 191.754 379.75 192.095 378.841L195.982 379.932C195.572 381.25 194.885 382.409 193.919 383.409C192.953 384.398 191.76 385.17 190.339 385.727C188.919 386.273 187.322 386.545 185.55 386.545ZM213.078 396.364C211.135 396.364 209.464 396.114 208.067 395.614C206.669 395.125 205.504 394.477 204.572 393.67C203.652 392.875 202.919 392.023 202.374 391.114L205.578 388.864C205.942 389.341 206.402 389.886 206.959 390.5C207.516 391.125 208.277 391.665 209.243 392.119C210.22 392.585 211.499 392.818 213.078 392.818C215.192 392.818 216.936 392.307 218.311 391.284C219.686 390.261 220.374 388.659 220.374 386.477V381.159H220.033C219.737 381.636 219.317 382.227 218.771 382.932C218.237 383.625 217.464 384.244 216.453 384.79C215.453 385.324 214.101 385.591 212.396 385.591C210.283 385.591 208.385 385.091 206.703 384.091C205.033 383.091 203.709 381.636 202.732 379.727C201.766 377.818 201.283 375.5 201.283 372.773C201.283 370.091 201.754 367.756 202.697 365.767C203.641 363.767 204.953 362.222 206.635 361.131C208.317 360.028 210.26 359.477 212.464 359.477C214.169 359.477 215.521 359.761 216.521 360.33C217.533 360.886 218.305 361.523 218.839 362.239C219.385 362.943 219.805 363.523 220.101 363.977H220.51V359.818H224.396V386.75C224.396 389 223.885 390.83 222.862 392.239C221.851 393.659 220.487 394.699 218.771 395.358C217.067 396.028 215.169 396.364 213.078 396.364ZM212.942 381.977C214.555 381.977 215.919 381.608 217.033 380.869C218.146 380.131 218.993 379.068 219.572 377.682C220.152 376.295 220.442 374.636 220.442 372.705C220.442 370.818 220.158 369.153 219.589 367.71C219.021 366.267 218.18 365.136 217.067 364.318C215.953 363.5 214.578 363.091 212.942 363.091C211.237 363.091 209.817 363.523 208.68 364.386C207.555 365.25 206.709 366.409 206.141 367.864C205.584 369.318 205.305 370.932 205.305 372.705C205.305 374.523 205.589 376.131 206.158 377.528C206.737 378.915 207.589 380.006 208.714 380.801C209.851 381.585 211.26 381.977 212.942 381.977ZM239.464 386.614C237.805 386.614 236.3 386.301 234.947 385.676C233.595 385.04 232.521 384.125 231.726 382.932C230.93 381.727 230.533 380.273 230.533 378.568C230.533 377.068 230.828 375.852 231.419 374.92C232.01 373.977 232.8 373.239 233.788 372.705C234.777 372.17 235.868 371.773 237.061 371.511C238.266 371.239 239.476 371.023 240.692 370.864C242.283 370.659 243.572 370.506 244.561 370.403C245.561 370.29 246.288 370.102 246.743 369.841C247.209 369.58 247.442 369.125 247.442 368.477V368.341C247.442 366.659 246.982 365.352 246.061 364.42C245.152 363.489 243.771 363.023 241.919 363.023C239.999 363.023 238.493 363.443 237.402 364.284C236.311 365.125 235.544 366.023 235.101 366.977L231.283 365.614C231.964 364.023 232.874 362.784 234.01 361.898C235.158 361 236.408 360.375 237.76 360.023C239.124 359.659 240.464 359.477 241.783 359.477C242.624 359.477 243.589 359.58 244.68 359.784C245.783 359.977 246.845 360.381 247.868 360.994C248.902 361.608 249.76 362.534 250.442 363.773C251.124 365.011 251.464 366.67 251.464 368.75V386H247.442V382.455H247.237C246.964 383.023 246.51 383.631 245.874 384.278C245.237 384.926 244.391 385.477 243.334 385.932C242.277 386.386 240.987 386.614 239.464 386.614ZM240.078 383C241.669 383 243.01 382.688 244.101 382.062C245.203 381.438 246.033 380.631 246.589 379.642C247.158 378.653 247.442 377.614 247.442 376.523V372.841C247.271 373.045 246.896 373.233 246.317 373.403C245.749 373.562 245.089 373.705 244.339 373.83C243.601 373.943 242.879 374.045 242.175 374.136C241.482 374.216 240.919 374.284 240.487 374.341C239.442 374.477 238.464 374.699 237.555 375.006C236.658 375.301 235.93 375.75 235.374 376.352C234.828 376.943 234.555 377.75 234.555 378.773C234.555 380.17 235.072 381.227 236.107 381.943C237.152 382.648 238.476 383 240.078 383ZM262.83 370.25V386H258.807V359.818H262.693V363.909H263.034C263.648 362.58 264.58 361.511 265.83 360.705C267.08 359.886 268.693 359.477 270.67 359.477C272.443 359.477 273.994 359.841 275.324 360.568C276.653 361.284 277.688 362.375 278.426 363.841C279.165 365.295 279.534 367.136 279.534 369.364V386H275.511V369.636C275.511 367.58 274.977 365.977 273.909 364.83C272.841 363.67 271.375 363.091 269.511 363.091C268.227 363.091 267.08 363.369 266.068 363.926C265.068 364.483 264.278 365.295 263.699 366.364C263.119 367.432 262.83 368.727 262.83 370.25ZM296.771 386.545C294.589 386.545 292.663 385.994 290.993 384.892C289.322 383.778 288.016 382.21 287.072 380.188C286.129 378.153 285.658 375.75 285.658 372.977C285.658 370.227 286.129 367.841 287.072 365.818C288.016 363.795 289.328 362.233 291.01 361.131C292.692 360.028 294.635 359.477 296.839 359.477C298.544 359.477 299.891 359.761 300.879 360.33C301.879 360.886 302.641 361.523 303.163 362.239C303.697 362.943 304.112 363.523 304.408 363.977H304.749V351.091H308.771V386H304.885V381.977H304.408C304.112 382.455 303.692 383.057 303.146 383.784C302.601 384.5 301.822 385.142 300.811 385.71C299.8 386.267 298.453 386.545 296.771 386.545ZM297.317 382.932C298.93 382.932 300.294 382.511 301.408 381.67C302.521 380.818 303.368 379.642 303.947 378.142C304.527 376.631 304.817 374.886 304.817 372.909C304.817 370.955 304.533 369.244 303.964 367.778C303.396 366.301 302.555 365.153 301.442 364.335C300.328 363.506 298.953 363.091 297.317 363.091C295.612 363.091 294.192 363.528 293.055 364.403C291.93 365.267 291.084 366.443 290.516 367.932C289.959 369.409 289.68 371.068 289.68 372.909C289.68 374.773 289.964 376.466 290.533 377.989C291.112 379.5 291.964 380.705 293.089 381.602C294.226 382.489 295.635 382.932 297.317 382.932ZM327.334 386.545C324.97 386.545 322.896 385.983 321.112 384.858C319.339 383.733 317.953 382.159 316.953 380.136C315.964 378.114 315.47 375.75 315.47 373.045C315.47 370.318 315.964 367.937 316.953 365.903C317.953 363.869 319.339 362.29 321.112 361.165C322.896 360.04 324.97 359.477 327.334 359.477C329.697 359.477 331.766 360.04 333.538 361.165C335.322 362.29 336.709 363.869 337.697 365.903C338.697 367.937 339.197 370.318 339.197 373.045C339.197 375.75 338.697 378.114 337.697 380.136C336.709 382.159 335.322 383.733 333.538 384.858C331.766 385.983 329.697 386.545 327.334 386.545ZM327.334 382.932C329.129 382.932 330.607 382.472 331.766 381.551C332.925 380.631 333.783 379.42 334.339 377.92C334.896 376.42 335.175 374.795 335.175 373.045C335.175 371.295 334.896 369.665 334.339 368.153C333.783 366.642 332.925 365.42 331.766 364.489C330.607 363.557 329.129 363.091 327.334 363.091C325.538 363.091 324.061 363.557 322.902 364.489C321.743 365.42 320.885 366.642 320.328 368.153C319.771 369.665 319.493 371.295 319.493 373.045C319.493 374.795 319.771 376.42 320.328 377.92C320.885 379.42 321.743 380.631 322.902 381.551C324.061 382.472 325.538 382.932 327.334 382.932ZM348.27 386.273C347.429 386.273 346.707 385.972 346.105 385.369C345.503 384.767 345.202 384.045 345.202 383.205C345.202 382.364 345.503 381.642 346.105 381.04C346.707 380.437 347.429 380.136 348.27 380.136C349.111 380.136 349.832 380.437 350.435 381.04C351.037 381.642 351.338 382.364 351.338 383.205C351.338 383.761 351.196 384.273 350.912 384.739C350.639 385.205 350.27 385.58 349.804 385.864C349.349 386.136 348.838 386.273 348.27 386.273ZM361.489 386.273C360.648 386.273 359.926 385.972 359.324 385.369C358.722 384.767 358.42 384.045 358.42 383.205C358.42 382.364 358.722 381.642 359.324 381.04C359.926 380.437 360.648 380.136 361.489 380.136C362.33 380.136 363.051 380.437 363.653 381.04C364.256 381.642 364.557 382.364 364.557 383.205C364.557 383.761 364.415 384.273 364.131 384.739C363.858 385.205 363.489 385.58 363.023 385.864C362.568 386.136 362.057 386.273 361.489 386.273ZM374.707 386.273C373.866 386.273 373.145 385.972 372.543 385.369C371.94 384.767 371.639 384.045 371.639 383.205C371.639 382.364 371.94 381.642 372.543 381.04C373.145 380.437 373.866 380.136 374.707 380.136C375.548 380.136 376.27 380.437 376.872 381.04C377.474 381.642 377.776 382.364 377.776 383.205C377.776 383.761 377.634 384.273 377.349 384.739C377.077 385.205 376.707 385.58 376.241 385.864C375.787 386.136 375.276 386.273 374.707 386.273Z" fill="black"/>
</g>
<defs>
<clipPath id="clip0_123_31">
<rect width="456" height="456" fill="white"/>
</clipPath>
</defs>
</svg>
