<svg width="400" height="400" viewBox="0 0 400 400" fill="none" xmlns="http://www.w3.org/2000/svg">
<path d="M260.296 143.519C260.338 143.301 260.324 143.077 260.256 142.866C260.188 142.655 260.068 142.463 259.905 142.307C259.743 142.15 259.544 142.034 259.324 141.969C259.105 141.903 258.873 141.89 258.647 141.93C242.619 126.889 221.075 118.552 198.701 118.733C176.326 118.914 154.931 127.597 139.166 142.895C123.402 158.193 114.544 178.869 114.519 200.425C114.493 221.982 123.303 242.676 139.031 258.009L139.038 258.016C139.107 258.182 139.211 258.332 139.342 258.459C139.474 258.586 139.63 258.685 139.802 258.752L139.809 258.759C155.724 273.912 177.205 282.399 199.58 282.374C221.955 282.35 243.415 273.816 259.294 258.628C275.173 243.441 284.187 222.828 284.374 201.272C284.562 179.716 275.909 158.961 260.296 143.519ZM199.448 121.443C220.737 121.429 241.193 129.409 256.474 143.689L251.83 148.163V145.994C251.83 145.708 251.736 145.429 251.562 145.196C251.388 144.964 251.142 144.79 250.86 144.699L242.366 141.971C242.153 141.903 241.927 141.884 241.705 141.917C241.483 141.95 241.273 142.033 241.091 142.16C240.909 142.286 240.761 142.453 240.659 142.645C240.557 142.837 240.504 143.05 240.504 143.267V150.086H235.896L236.257 139.216C236.267 138.88 236.149 138.553 235.924 138.296C235.7 138.039 235.385 137.871 235.04 137.824L225.129 136.46C224.929 136.433 224.724 136.448 224.53 136.503C224.336 136.558 224.156 136.653 224.003 136.781C223.85 136.909 223.727 137.067 223.643 137.245C223.559 137.423 223.515 137.616 223.515 137.811V152.814H217.852V148.722C217.852 148.52 217.806 148.321 217.716 148.138C217.627 147.956 217.497 147.794 217.336 147.665C217.174 147.537 216.984 147.446 216.781 147.397C216.578 147.349 216.366 147.345 216.161 147.386L209.358 148.695V143.267C209.359 142.938 209.236 142.62 209.012 142.371C208.788 142.123 208.478 141.961 208.14 141.916L198.23 140.552C198.029 140.525 197.825 140.539 197.631 140.595C197.436 140.65 197.257 140.745 197.104 140.873C196.951 141.001 196.828 141.159 196.744 141.337C196.66 141.514 196.616 141.707 196.616 141.903V164.633L192.086 158.816C191.903 158.579 191.646 158.406 191.353 158.322C191.06 158.238 190.746 158.248 190.459 158.35C190.172 158.452 189.928 158.641 189.761 158.889C189.595 159.136 189.517 159.429 189.537 159.723L191.038 181.314C176.521 178.889 161.597 180.197 147.773 185.106C143.409 186.635 139.641 189.424 136.981 193.091C134.321 196.758 132.899 201.125 132.908 205.599V214.192C132.909 214.553 133.058 214.9 133.324 215.155C133.589 215.411 133.948 215.555 134.323 215.556H137.403C137.262 215.931 137.181 216.324 137.162 216.722C137.133 217.254 137.218 217.785 137.41 218.284H137.155C135.561 218.274 134.011 218.786 132.758 219.735C131.505 220.684 130.624 222.015 130.258 223.509C129.892 225.004 130.064 226.574 130.744 227.962C131.425 229.351 132.574 230.475 134.005 231.153C133.48 231.976 133.274 232.952 133.424 233.908L134.281 239.248C134.72 242.089 136.185 244.689 138.419 246.592C140.653 248.494 143.511 249.576 146.492 249.648L140.425 255.492C129.215 244.331 121.666 230.237 118.718 214.968C115.771 199.699 117.556 183.932 123.851 169.634C130.147 155.336 140.673 143.141 154.117 134.571C167.561 126.001 183.327 121.435 199.448 121.443ZM146.874 246.927C144.504 246.938 142.208 246.125 140.409 244.639C138.61 243.152 137.427 241.09 137.077 238.832L136.228 233.492C136.196 233.298 136.208 233.1 136.263 232.911C136.319 232.722 136.416 232.547 136.549 232.397C136.681 232.248 136.846 232.129 137.031 232.047C137.217 231.965 137.418 231.923 137.622 231.923H164.889L149.316 246.927H146.874ZM140.376 217.786C140.248 217.664 140.147 217.519 140.08 217.358C140.013 217.197 139.981 217.025 139.986 216.852C140.009 216.518 140.152 216.202 140.39 215.958C140.66 215.702 141.023 215.557 141.402 215.556H181.878L178.41 218.898L177.426 218.427C177.231 218.332 177.015 218.283 176.796 218.284H169.717C168.966 218.284 168.246 218.571 167.715 219.083C167.184 219.594 166.886 220.288 166.886 221.012V223.624C166.89 223.89 166.821 224.153 166.685 224.386C166.55 224.618 166.353 224.812 166.114 224.947C166.04 224.991 165.958 225.023 165.873 225.042C165.801 225.069 165.724 225.085 165.647 225.09C165.614 225.096 165.581 225.098 165.548 225.097C165.496 225.104 165.444 225.104 165.392 225.097C165.359 225.098 165.325 225.096 165.293 225.09C165.215 225.085 165.139 225.069 165.066 225.042C164.981 225.023 164.9 224.991 164.826 224.947C164.587 224.812 164.39 224.618 164.254 224.386C164.119 224.153 164.049 223.89 164.054 223.624V222.376C164.054 221.29 163.607 220.25 162.81 219.482C162.014 218.715 160.933 218.284 159.807 218.284H141.565C141.342 218.284 141.121 218.24 140.916 218.155C140.712 218.069 140.528 217.944 140.376 217.786ZM226.347 154.178V139.386L233.383 140.355L233.015 151.416L232.597 166.692L226.347 172.714V154.178ZM240.504 159.075L235.507 163.89L235.811 152.814H240.504V159.075ZM218.603 196.461H243.336V207.372H220.684V205.599C220.686 202.444 219.976 199.325 218.603 196.461ZM232.229 180.093H226.347V176.561L232.491 170.641L232.229 180.093ZM223.515 180.093H222.68L223.515 179.289V180.093ZM215.028 195.751C216.876 198.728 217.852 202.131 217.852 205.599V212.828H188.702L211.121 191.23C212.66 192.531 213.979 194.057 215.028 195.751ZM212.027 215.556C212.251 215.556 212.472 215.6 212.678 215.686C212.884 215.771 213.069 215.897 213.223 216.054C213.462 216.29 213.598 216.604 213.605 216.934V216.988C213.582 217.322 213.439 217.638 213.202 217.881C212.932 218.138 212.568 218.282 212.189 218.284H205.111C204.851 218.283 204.596 218.352 204.374 218.482L192.298 225.595L181.071 220.18L185.871 215.556H212.027ZM240.504 180.093H235.061L235.401 167.838L240.504 162.921V180.093ZM223.515 175.442L218.688 180.093H217.852V155.542H223.515V175.442ZM215.021 154.178V180.093H208.65V180.086L207.291 151.873L208.176 151.703L208.268 151.689L215.021 150.386V154.178ZM206.526 149.241L205.542 149.432C205.211 149.496 204.914 149.672 204.705 149.928C204.496 150.184 204.389 150.504 204.403 150.83L205.62 176.206L199.448 168.275V143.478L206.526 144.446V149.241ZM192.291 184.315V184.321C196.563 185.132 200.766 186.251 204.863 187.67C206.263 188.153 207.601 188.792 208.848 189.573L184.71 212.828H135.739V205.599C135.729 201.687 136.97 197.866 139.295 194.658C141.619 191.45 144.913 189.01 148.729 187.67C162.655 182.724 177.726 181.563 192.291 184.315ZM168.882 231.923H215.969C216.173 231.923 216.375 231.965 216.56 232.047C216.745 232.129 216.91 232.248 217.043 232.397C217.175 232.547 217.273 232.722 217.328 232.911C217.384 233.1 217.396 233.298 217.364 233.492L216.514 238.832C216.403 239.528 216.215 240.212 215.955 240.871C215.927 240.925 215.906 240.98 215.877 241.041C215.877 241.048 215.87 241.055 215.87 241.069C215.121 242.81 213.85 244.297 212.22 245.341C210.59 246.384 208.674 246.936 206.718 246.927H153.309L168.882 231.923ZM248.999 170.089L243.336 177.365V160.193L248.999 154.737V170.089ZM243.336 156.347V145.156L248.999 146.977V150.891L243.336 156.347ZM199.448 279.662C178.159 279.676 157.702 271.696 142.421 257.416L150.477 249.655H206.718C209.095 249.667 211.427 249.033 213.448 247.827C215.468 246.621 217.095 244.891 218.143 242.835H253.246C253.606 242.834 253.952 242.702 254.214 242.466C254.477 242.229 254.637 241.905 254.662 241.56L260.325 159.723C260.346 159.429 260.267 159.136 260.101 158.889C259.935 158.641 259.69 158.452 259.403 158.35C259.116 158.248 258.802 158.238 258.509 158.322C258.216 158.406 257.959 158.579 257.776 158.816L251.83 166.454V152.009L258.47 145.613C269.68 156.774 277.23 170.868 280.177 186.137C283.125 201.406 281.339 217.173 275.044 231.471C268.749 245.769 258.222 257.963 244.778 266.534C231.334 275.104 215.568 279.67 199.448 279.662Z" fill="black"/>
<path d="M192.447 192.908L196.694 194.953C197.028 195.101 197.409 195.118 197.756 195C198.103 194.882 198.389 194.639 198.553 194.321C198.717 194.004 198.746 193.637 198.634 193.3C198.522 192.962 198.278 192.679 197.954 192.512L193.707 190.466C193.373 190.318 192.992 190.301 192.645 190.419C192.298 190.537 192.012 190.781 191.848 191.098C191.684 191.416 191.655 191.782 191.767 192.12C191.879 192.457 192.123 192.74 192.447 192.908Z" fill="black"/>
<path d="M183.747 202.496C183.984 202.654 184.265 202.74 184.554 202.742C184.782 202.741 185.007 202.688 185.209 202.586C185.411 202.484 185.585 202.336 185.715 202.155L187.895 199.141C188.013 198.995 188.098 198.827 188.147 198.648C188.195 198.468 188.205 198.282 188.176 198.099C188.146 197.916 188.079 197.74 187.977 197.583C187.876 197.426 187.742 197.291 187.584 197.185C187.426 197.08 187.248 197.006 187.06 196.969C186.872 196.932 186.678 196.932 186.489 196.969C186.301 197.007 186.123 197.081 185.966 197.187C185.808 197.293 185.675 197.429 185.573 197.586L183.393 200.6C183.287 200.747 183.212 200.913 183.172 201.087C183.132 201.262 183.129 201.443 183.161 201.619C183.194 201.795 183.263 201.963 183.363 202.114C183.464 202.264 183.594 202.394 183.747 202.496Z" fill="black"/>
<path d="M172.697 188.652C172.589 188.998 172.629 189.372 172.807 189.69C172.984 190.009 173.286 190.246 173.646 190.35L177.709 191.537C177.842 191.577 177.98 191.598 178.119 191.598C178.423 191.597 178.719 191.502 178.964 191.328C179.208 191.154 179.388 190.909 179.479 190.63C179.586 190.283 179.547 189.91 179.369 189.591C179.191 189.273 178.889 189.036 178.53 188.932L174.467 187.745C174.289 187.692 174.102 187.674 173.916 187.691C173.731 187.708 173.551 187.761 173.387 187.845C173.222 187.929 173.077 188.044 172.958 188.182C172.84 188.321 172.751 188.48 172.697 188.652Z" fill="black"/>
<path d="M167.147 199.257L162.9 200.621C162.58 200.722 162.308 200.93 162.133 201.208C161.958 201.485 161.891 201.813 161.945 202.134C161.998 202.455 162.169 202.746 162.426 202.956C162.683 203.166 163.009 203.281 163.346 203.28C163.498 203.281 163.648 203.258 163.792 203.212L168.039 201.848C168.396 201.734 168.691 201.489 168.86 201.165C169.028 200.841 169.057 200.467 168.938 200.123C168.82 199.779 168.565 199.495 168.229 199.332C167.893 199.17 167.504 199.143 167.147 199.257Z" fill="black"/>
<path d="M158.71 189.695L153.755 191.059C153.428 191.151 153.147 191.353 152.962 191.628C152.777 191.904 152.702 192.234 152.749 192.558C152.796 192.883 152.963 193.18 153.219 193.396C153.475 193.612 153.804 193.731 154.144 193.733C154.276 193.735 154.407 193.716 154.533 193.678L159.488 192.314C159.831 192.2 160.116 191.964 160.283 191.655C160.45 191.345 160.488 190.985 160.388 190.649C160.288 190.313 160.059 190.027 159.746 189.85C159.434 189.672 159.063 189.617 158.71 189.695Z" fill="black"/>
</svg>
